<?xml version="1.0" standalone="no"?>
<!DOCTYPE svg PUBLIC "-//W3C//DTD SVG 20010904//EN"
 "http://www.w3.org/TR/2001/REC-SVG-20010904/DTD/svg10.dtd">
<svg version="1.0" xmlns="http://www.w3.org/2000/svg"
 width="204.000000pt" height="192.000000pt" viewBox="0 0 204.000000 192.000000"
 preserveAspectRatio="xMidYMid meet">
<metadata>
Created by potrace 1.10, written by Peter Selinger 2001-2011
</metadata>
<g transform="translate(0.000000,192.000000) scale(0.100000,-0.100000)"
fill="#000000" stroke="none">
<path d="M282 1827 l-93 -93 21 -19 c28 -26 86 -147 105 -220 23 -93 19 -270
-11 -417 l-5 -27 -45 35 c-55 41 -91 44 -133 9 -22 -20 -32 -40 -41 -83 -16
-81 -30 -123 -51 -154 -27 -37 -24 -84 6 -113 13 -14 30 -25 37 -25 9 0 13
-16 14 -45 3 -89 70 -203 181 -305 76 -69 206 -137 353 -185 106 -34 154 -59
260 -130 105 -70 130 -67 30 4 -100 70 -166 103 -317 156 -157 56 -254 110
-334 189 -106 105 -151 190 -152 286 0 53 -2 56 -25 55 -18 0 -31 9 -44 31
-18 31 -18 31 12 87 17 30 37 84 44 120 17 81 30 105 61 113 33 8 74 -9 120
-52 21 -19 39 -33 40 -32 1 2 10 57 19 123 35 252 14 396 -77 545 l-34 55 91
93 c50 50 84 92 76 92 -9 0 -57 -42 -108 -93z"/>
<path d="M1727 1828 c87 -88 91 -94 77 -113 -35 -45 -86 -162 -100 -224 -18
-88 -18 -221 2 -361 9 -63 18 -117 20 -119 2 -2 12 7 23 21 30 38 102 72 134
64 28 -7 57 -50 57 -86 0 -31 39 -140 60 -170 18 -26 18 -28 2 -61 -13 -25
-23 -34 -42 -34 -24 0 -25 -3 -27 -57 -1 -59 -32 -143 -73 -196 -51 -67 -147
-153 -213 -190 -40 -23 -129 -61 -199 -86 -70 -25 -153 -58 -185 -75 -78 -39
-210 -134 -195 -139 7 -2 29 9 50 25 96 74 182 119 302 158 138 45 277 117
348 180 112 102 180 217 184 312 2 34 6 43 25 48 25 6 53 51 53 85 0 11 -11
37 -24 58 -14 21 -32 72 -41 117 -13 66 -21 85 -47 109 -25 23 -37 27 -66 22
-19 -3 -52 -19 -73 -35 l-37 -31 -6 28 c-55 267 -22 498 88 629 l25 30 -92 91
c-51 51 -99 92 -107 92 -8 0 27 -42 77 -92z"/>
<path d="M373 1819 l-92 -91 25 -39 c67 -106 103 -307 85 -471 -11 -108 -18
-154 -27 -177 -2 -8 -7 -44 -10 -81 -9 -94 17 -206 59 -263 18 -23 40 -54 50
-69 9 -15 29 -31 44 -34 15 -4 82 -30 148 -57 66 -27 146 -59 178 -72 31 -13
87 -44 124 -70 36 -26 69 -43 72 -38 24 35 247 142 454 217 30 11 64 36 93 66
64 68 71 80 95 157 24 78 22 171 -7 303 -22 100 -22 301 0 400 9 41 33 110 54
153 l38 78 -90 89 -91 90 -555 0 -555 0 -92 -91z m1207 61 c0 -5 33 -43 74
-83 l75 -73 -30 -64 c-17 -35 -40 -97 -51 -139 -27 -106 -27 -307 1 -451 26
-130 26 -201 2 -271 -27 -79 -43 -109 -52 -103 -5 3 -9 -2 -9 -10 0 -24 -15
-19 -27 7 -14 29 -77 61 -109 54 -14 -2 -24 1 -24 7 1 32 15 56 41 66 39 17
44 28 24 50 -15 16 -15 25 -5 73 11 48 10 72 -9 188 -28 168 -20 261 35 386
21 49 29 97 14 88 -11 -7 -91 81 -83 90 5 4 2 4 -6 0 -11 -6 -13 -4 -8 8 5 14
-33 16 -405 17 l-411 1 -49 -51 c-27 -28 -53 -48 -58 -45 -5 3 -7 0 -4 -8 3
-8 -2 -19 -10 -26 -14 -12 -14 -16 0 -42 41 -80 58 -163 58 -279 0 -67 -5
-130 -13 -152 -18 -54 -17 -178 3 -216 14 -26 14 -31 1 -36 -26 -9 -17 -26 23
-43 47 -19 43 -15 52 -62 9 -50 -5 -67 -33 -40 -31 28 -88 25 -117 -6 -13 -14
-26 -25 -30 -25 -10 0 -30 62 -23 73 3 6 1 7 -5 3 -15 -9 -42 89 -42 152 0 27
10 94 21 148 16 72 22 137 22 239 1 154 -14 232 -72 360 l-30 65 44 45 c24 25
49 45 55 45 5 0 10 6 10 13 0 8 10 23 23 35 22 20 34 22 217 24 363 5 920 -2
920 -12z m-574 -186 c-3 -9 -6 -20 -6 -25 0 -5 -12 -6 -26 -3 -24 6 -26 5 -19
-17 8 -27 26 -52 32 -45 3 2 0 14 -7 25 -9 18 -8 21 9 21 10 0 22 8 26 18 6
16 7 16 16 0 6 -10 17 -18 24 -18 17 0 19 -9 6 -28 -4 -8 -14 -12 -22 -11 -8
2 -24 -2 -37 -9 -18 -11 -26 -10 -44 3 -31 21 -61 20 -54 -3 7 -22 -24 -43
-53 -35 -12 3 -21 13 -21 24 0 23 -23 25 -40 4 -20 -24 -26 -18 -22 19 4 35
-14 59 -24 32 -5 -14 -8 -14 -30 0 -13 9 -30 14 -38 11 -22 -9 23 -95 46 -89
12 3 21 -5 29 -22 10 -22 9 -29 -6 -46 -12 -13 -15 -27 -11 -44 3 -14 1 -28
-4 -31 -8 -5 -8 -11 0 -20 6 -7 10 -28 9 -46 -1 -19 1 -44 5 -55 4 -15 2 -23
-8 -27 -15 -6 -30 -47 -41 -110 -5 -31 -13 -41 -46 -58 -33 -17 -38 -23 -29
-35 7 -8 21 -14 31 -14 21 0 89 56 89 74 0 6 -10 -1 -23 -16 -28 -34 -66 -53
-79 -40 -6 6 2 14 20 21 34 14 48 39 57 100 8 52 35 81 73 81 16 0 37 9 47 20
14 16 32 20 84 22 l66 2 -75 6 -75 6 98 2 c76 2 97 -1 91 -10 -6 -10 -4 -10 8
0 11 9 42 12 100 9 l83 -3 -86 -2 c-80 -2 -87 -4 -93 -24 -3 -13 -1 -27 4 -32
7 -7 10 0 10 17 0 27 1 27 68 27 56 0 72 -4 87 -20 11 -12 31 -20 50 -20 42 0
64 -26 74 -89 8 -53 30 -86 62 -96 11 -4 17 -11 14 -16 -10 -16 -24 -10 -65
27 -22 20 -40 32 -40 26 0 -6 17 -24 37 -41 41 -34 26 -42 -23 -12 -19 12 -34
32 -42 57 -6 22 -27 55 -47 74 -41 40 -47 36 -9 -6 15 -16 34 -49 43 -74 14
-39 24 -49 76 -75 58 -29 60 -32 77 -92 14 -46 27 -69 48 -85 33 -24 38 -38
15 -38 -8 0 -24 -6 -35 -12 -34 -22 -59 4 -123 122 -16 29 -30 50 -33 47 -7
-6 64 -136 89 -164 11 -13 26 -23 34 -23 7 0 13 -8 13 -17 0 -39 -13 -60 -41
-70 -31 -12 -33 -11 -64 32 -12 17 -14 17 -15 3 0 -9 6 -19 13 -21 6 -3 -7 -6
-30 -6 -23 -1 -53 -6 -67 -12 -13 -6 -36 -9 -51 -5 -20 5 -25 11 -20 26 7 22
-12 28 -21 7 -2 -7 -20 -13 -39 -14 l-34 -1 66 61 c36 34 71 62 79 63 22 3 43
24 61 58 29 56 0 186 -55 249 -29 33 -33 17 -4 -20 38 -49 52 -93 52 -164 0
-47 -4 -63 -25 -86 -18 -21 -27 -25 -33 -15 -6 9 -15 3 -31 -19 -21 -28 -25
-30 -33 -15 -8 14 -3 24 21 48 16 16 35 27 41 23 5 -3 10 -1 10 4 0 6 -6 11
-12 11 -7 1 -2 10 11 20 13 11 18 20 11 20 -6 0 -10 8 -9 18 4 34 -59 142 -83
142 -5 0 4 -17 21 -37 16 -21 33 -50 36 -65 7 -26 5 -28 -21 -28 -16 0 -36 -5
-44 -10 -10 -7 0 -8 33 -4 32 5 47 3 47 -5 0 -6 -17 -11 -40 -11 -47 0 -54
-20 -12 -38 26 -11 25 -11 -12 -7 -24 3 -49 14 -64 29 l-24 24 22 29 c20 28
21 32 6 66 -8 21 -20 37 -26 37 -7 0 -5 -9 4 -22 23 -33 20 -38 -24 -38 l-41
0 16 31 c9 17 14 33 11 36 -8 8 -36 -54 -36 -81 0 -15 8 -30 20 -36 19 -10 19
-12 4 -35 -14 -22 -60 -45 -90 -45 -19 0 -44 29 -44 52 0 18 4 20 41 14 26 -4
38 -3 34 4 -3 5 -22 10 -41 10 -32 0 -35 2 -29 23 4 12 21 42 38 67 l30 45
-31 -29 c-18 -17 -37 -45 -44 -63 -7 -18 -15 -33 -18 -33 -12 0 -5 -45 8 -59
10 -10 10 -16 1 -27 -9 -12 -9 -13 2 -9 22 8 73 -49 65 -72 -7 -17 -9 -16 -26
5 -10 12 -21 28 -23 35 -4 9 -8 9 -15 -1 -7 -10 -15 -6 -36 18 -20 25 -26 42
-26 80 0 61 23 127 57 162 15 15 23 31 19 35 -9 9 -39 -28 -66 -83 -14 -28
-20 -60 -20 -107 0 -60 3 -70 31 -102 17 -19 34 -33 39 -30 4 2 42 -28 84 -67
77 -72 85 -99 21 -69 -18 9 -37 25 -41 36 -6 20 -7 20 -11 -1 -3 -14 -17 -24
-49 -32 -62 -17 -65 -16 -48 16 7 15 14 35 14 44 0 19 -59 92 -68 84 -2 -3 9
-21 27 -41 17 -20 31 -37 31 -39 0 -2 -5 -17 -11 -35 -12 -33 -35 -44 -24 -11
7 22 -10 60 -27 60 -9 0 -9 -3 0 -12 7 -7 12 -22 12 -35 0 -19 -5 -22 -30 -20
-19 1 -32 9 -36 20 -3 9 -10 17 -15 17 -6 0 -7 -9 -4 -20 4 -14 1 -22 -10 -26
-20 -8 -21 -7 -28 42 -6 37 -4 42 19 53 17 7 35 33 54 75 16 36 34 67 40 71 5
3 10 11 10 18 0 21 -24 -11 -60 -81 -25 -48 -43 -70 -62 -76 -34 -12 -50 1
-24 20 23 17 56 64 56 82 0 22 -18 12 -24 -14 -9 -34 -50 -74 -76 -74 -26 0
-26 17 0 25 24 8 56 59 64 106 7 39 37 73 76 84 36 11 68 43 75 77 4 16 21 45
37 64 17 19 28 37 26 40 -9 8 -67 -65 -74 -94 -9 -38 -23 -53 -71 -74 -45 -20
-83 -60 -83 -88 0 -32 -22 -80 -41 -91 -15 -8 -19 -6 -17 8 1 10 -2 40 -6 67
-6 34 -4 72 7 130 23 115 25 136 16 130 -5 -3 -9 0 -9 5 0 6 5 11 10 11 6 0
10 18 10 41 0 29 -3 38 -12 33 -10 -6 -10 -4 -2 7 12 15 -3 106 -27 164 -7 17
-11 35 -10 42 1 7 -7 18 -19 25 -22 14 -27 38 -7 38 7 0 37 25 67 56 30 31 49
53 41 49 -9 -5 -12 -4 -7 3 5 9 66 12 203 12 174 0 194 -2 189 -16z m400 7
c-8 -13 64 -92 77 -84 5 3 7 1 4 -4 -7 -11 21 -40 32 -35 3 1 6 -4 6 -10 0 -7
-5 -12 -12 -11 -6 1 -25 -36 -42 -83 -27 -75 -31 -98 -31 -193 0 -65 7 -140
18 -192 11 -53 16 -99 11 -123 -3 -21 -4 -48 -1 -60 5 -18 3 -19 -11 -8 -9 8
-23 39 -32 70 -9 32 -26 65 -38 74 -21 17 -21 18 -2 18 11 0 28 7 37 14 16 12
14 15 -22 31 -41 18 -46 27 -65 121 -8 41 -45 73 -77 67 -15 -3 -29 2 -38 12
-12 14 -9 16 28 14 23 -2 42 -7 42 -12 0 -4 5 -5 10 -2 7 4 8 24 4 51 -4 26
-2 44 3 44 14 0 10 84 -4 93 -7 4 -13 18 -13 31 0 25 23 51 38 42 10 -6 54 79
45 88 -11 10 -31 7 -47 -9 -9 -9 -17 -11 -21 -5 -3 5 -13 10 -22 10 -12 0 -14
-7 -10 -35 6 -35 5 -35 -16 -20 -29 20 -47 19 -47 -4 0 -11 -9 -21 -21 -24
-29 -8 -60 13 -53 35 7 23 -18 24 -51 2 -28 -18 -32 -9 -10 20 22 29 19 48 -6
44 -15 -2 -24 4 -30 20 l-8 22 190 0 c108 0 188 -4 185 -9z m-686 -76 c10 -13
15 -13 21 -3 13 20 19 4 10 -27 l-7 -30 -27 29 c-15 16 -27 33 -27 37 0 14 16
10 30 -6z m619 -19 c-16 -35 -49 -35 -49 0 0 21 3 24 14 15 10 -9 16 -8 26 4
18 22 23 12 9 -19z m-375 -21 c22 -16 22 -16 -14 -32 l-25 -12 27 0 c37 -1 43
-16 12 -30 -32 -14 -34 -14 -34 4 0 8 -9 19 -21 25 l-21 12 24 23 c28 28 28
28 52 10z m96 -23 c-1 -43 -41 -56 -64 -20 -15 25 19 61 45 47 11 -5 19 -17
19 -27z m57 31 c-4 -3 2 -13 14 -21 l20 -14 -20 -22 c-12 -13 -18 -26 -14 -30
10 -11 -39 4 -51 15 -6 5 -4 10 5 13 43 14 44 15 22 21 -27 9 -29 20 -5 34 19
12 39 14 29 4z m-284 -69 c-25 -25 -53 -29 -60 -9 -2 6 11 16 29 23 17 6 29
14 26 17 -3 3 -17 1 -31 -4 -34 -13 -44 3 -16 23 20 13 24 13 49 -6 l27 -20
-24 -24z m429 53 c9 -7 15 -25 15 -40 -3 -39 -40 -48 -66 -16 -19 23 -19 24 2
45 26 26 28 27 49 11z m-360 -50 c11 -9 14 -18 8 -27 -7 -11 -12 -11 -23 -2
-12 10 -18 7 -32 -14 -17 -26 -29 -28 -80 -9 -20 7 -20 6 -1 -9 27 -22 73 -20
88 3 11 18 14 18 39 5 41 -20 67 -17 96 12 l25 25 27 -25 c30 -29 66 -33 98
-11 18 13 22 12 38 -5 19 -21 69 -27 80 -10 9 15 35 12 30 -2 -4 -10 -68 -13
-273 -12 -258 0 -267 1 -267 20 0 16 6 19 43 16 33 -2 42 1 42 14 0 15 26 43
40 43 3 0 13 -5 22 -12z m273 7 c9 -4 21 -18 26 -31 8 -21 13 -23 46 -18 36 6
37 5 19 -9 -29 -23 -63 -20 -77 7 -6 12 -13 24 -15 26 -2 2 -15 -6 -30 -18
-33 -26 -55 -27 -85 -1 -20 16 -21 19 -7 20 9 0 20 -4 23 -10 9 -15 55 -12 55
3 0 7 5 18 12 25 14 14 12 14 33 6z m-194 -44 c-25 -22 -56 -26 -66 -10 -4 6
6 10 24 10 16 0 33 5 36 10 3 6 12 10 18 10 7 -1 1 -10 -12 -20z m304 -69 c24
-5 26 -8 13 -13 -21 -8 -24 -54 -5 -61 6 -2 9 -7 6 -11 -3 -3 -14 -3 -24 0
-13 5 -16 15 -12 39 l5 32 -60 7 c-81 8 -316 7 -400 -3 -38 -4 -68 -4 -68 0 0
4 10 10 23 12 36 7 489 5 522 -2z m-38 -48 l0 -28 -244 0 c-240 0 -243 0 -243
21 0 11 3 24 7 27 3 4 113 7 243 7 l237 0 0 -27z m-417 -64 c0 -18 -51 -22
-68 -5 -16 16 -16 17 2 10 12 -5 17 -4 13 2 -4 6 6 9 24 6 16 -2 29 -8 29 -13z
m350 -358 c0 -18 -15 -19 -40 -5 l-25 13 33 1 c17 0 32 -4 32 -9z m-104 -96
c-35 -45 -74 -45 -109 -1 l-27 35 28 15 c16 8 34 22 41 30 11 14 18 12 51 -17
l39 -32 -23 -30z m-88 -66 c56 -6 66 -3 91 28 29 37 41 41 41 15 0 -10 -21
-39 -48 -64 l-47 -45 -52 46 c-42 38 -51 51 -46 69 5 22 7 21 30 -13 13 -19
27 -35 31 -36z m-397 -90 c10 -13 28 -36 39 -51 l21 -28 -28 -11 c-46 -18
-114 -5 -140 26 -22 25 -31 55 -16 55 4 0 17 -10 30 -22 13 -12 23 -16 23 -9
0 6 -6 14 -14 17 -8 3 -17 13 -21 21 -15 40 77 41 106 2z m935 13 c47 -40 35
-104 -22 -115 -42 -8 -68 7 -107 61 l-35 50 31 10 c51 16 110 13 133 -6z
m-726 -28 c22 -20 40 -39 40 -43 0 -4 -13 -15 -30 -24 -28 -17 -29 -17 -40 4
-7 11 -14 18 -17 15 -3 -3 0 -12 7 -21 10 -13 9 -15 -8 -15 -11 0 -22 7 -26
15 -3 8 -11 15 -17 15 -8 0 -8 -4 1 -15 11 -13 10 -14 -6 -9 -10 3 -36 25 -56
48 l-38 41 33 12 c17 6 51 12 74 12 36 1 50 -5 83 -35z m148 22 c15 -8 37 -25
50 -39 l23 -25 -27 -21 c-48 -38 -115 -24 -149 32 -30 49 -30 50 4 44 20 -4
30 -3 26 3 -9 14 19 12 34 -2 11 -11 13 -10 8 5 -8 21 -4 21 31 3z m226 -20
c43 -40 44 -48 11 -70 -23 -15 -25 -15 -35 5 -7 11 -14 18 -17 15 -3 -3 0 -12
7 -21 10 -13 9 -15 -9 -15 -12 0 -24 7 -27 15 -4 8 -11 15 -16 15 -6 0 -5 -6
2 -15 10 -12 10 -15 0 -15 -7 0 -33 21 -57 47 l-43 48 32 12 c18 6 52 12 75
12 34 1 48 -5 77 -33z m102 13 c5 -8 9 -8 14 1 12 20 53 4 79 -30 26 -36 18
-55 -30 -65 -51 -11 -88 3 -114 46 -31 48 -31 53 1 45 17 -5 23 -3 19 4 -3 5
1 10 9 10 8 0 18 -5 22 -11z m-250 -97 c-8 -9 -19 -13 -22 -9 -10 9 16 38 28
31 6 -4 4 -13 -6 -22z m-151 2 c15 -10 41 -15 67 -13 24 2 49 -1 56 -5 6 -4
21 -2 31 4 14 7 34 7 61 1 42 -9 91 -1 115 19 10 8 21 7 44 -4 39 -20 100 -20
129 0 20 14 24 14 47 -4 l25 -20 -47 -17 c-27 -9 -60 -23 -75 -31 -15 -8 -50
-21 -76 -29 -27 -8 -86 -37 -133 -65 -46 -27 -90 -50 -97 -50 -17 0 -66 26
-120 62 -23 16 -68 38 -100 49 -31 10 -84 30 -117 43 -33 14 -69 27 -80 31
-17 6 -14 9 18 21 29 10 44 11 59 3 31 -16 104 -14 130 4 29 20 34 20 63 1z"/>
<path d="M913 1753 c9 -2 23 -2 30 0 6 3 -1 5 -18 5 -16 0 -22 -2 -12 -5z"/>
<path d="M968 1753 c7 -3 16 -2 19 1 4 3 -2 6 -13 5 -11 0 -14 -3 -6 -6z"/>
<path d="M1058 1753 c7 -3 16 -2 19 1 4 3 -2 6 -13 5 -11 0 -14 -3 -6 -6z"/>
<path d="M1108 1753 c12 -2 32 -2 45 0 12 2 2 4 -23 4 -25 0 -35 -2 -22 -4z"/>
<path d="M1233 1753 c9 -2 23 -2 30 0 6 3 -1 5 -18 5 -16 0 -22 -2 -12 -5z"/>
<path d="M1507 1431 c-4 -17 -3 -21 5 -13 5 5 8 16 6 23 -3 8 -7 3 -11 -10z"/>
<path d="M522 1370 c0 -14 2 -19 5 -12 2 6 2 18 0 25 -3 6 -5 1 -5 -13z"/>
<path d="M1492 1345 c0 -16 2 -22 5 -12 2 9 2 23 0 30 -3 6 -5 -1 -5 -18z"/>
<path d="M1533 1270 c0 -25 2 -35 4 -22 2 12 2 32 0 45 -2 12 -4 2 -4 -23z"/>
<path d="M1492 1275 c0 -16 2 -22 5 -12 2 9 2 23 0 30 -3 6 -5 -1 -5 -18z"/>
<path d="M523 1190 c0 -30 2 -43 4 -27 2 15 2 39 0 55 -2 15 -4 2 -4 -28z"/>
<path d="M1552 1105 c0 -16 2 -22 5 -12 2 9 2 23 0 30 -3 6 -5 -1 -5 -18z"/>
<path d="M496 1082 c-2 -4 -1 -14 5 -22 7 -12 9 -10 9 8 0 23 -5 28 -14 14z"/>
<path d="M1512 930 c0 -14 2 -19 5 -12 2 6 2 18 0 25 -3 6 -5 1 -5 -13z"/>
<path d="M712 1534 c1 -9 9 -19 16 -22 9 -3 13 2 10 14 -1 9 -9 19 -16 22 -9
3 -13 -2 -10 -14z"/>
<path d="M992 1300 c1 -16 5 -30 10 -30 4 0 7 14 6 30 -1 17 -5 30 -9 30 -4 0
-7 -13 -7 -30z"/>
<path d="M632 1280 c0 -19 2 -27 5 -17 2 9 2 25 0 35 -3 9 -5 1 -5 -18z"/>
<path d="M900 1235 c0 -20 44 -65 64 -65 32 0 42 11 38 39 -3 24 -10 30 -40
35 -54 9 -62 8 -62 -9z m43 -15 c5 -21 27 -28 27 -9 0 5 5 7 10 4 20 -12 10
-26 -16 -23 -30 3 -68 48 -41 48 8 0 17 -9 20 -20z"/>
<path d="M1072 1243 c-31 -4 -33 -7 -30 -36 2 -25 8 -33 26 -35 28 -4 72 33
72 60 0 18 -3 19 -68 11z m58 -9 c0 -3 -5 -14 -10 -25 -13 -24 -73 -28 -64 -4
5 12 9 13 21 4 11 -10 15 -8 20 9 5 19 33 33 33 16z"/>
<path d="M866 1115 c-35 -46 -19 -46 17 0 15 19 24 35 19 35 -5 0 -22 -16 -36
-35z"/>
<path d="M1140 1145 c1 -16 50 -68 58 -61 3 4 -8 21 -26 39 -18 17 -32 27 -32
22z"/>
<path d="M883 963 c9 -2 25 -2 35 0 9 3 1 5 -18 5 -19 0 -27 -2 -17 -5z"/>
<path d="M908 943 c7 -3 16 -2 19 1 4 3 -2 6 -13 5 -11 0 -14 -3 -6 -6z"/>
<path d="M1370 934 c0 -11 23 -50 43 -71 34 -38 41 -26 8 12 -17 20 -31 42
-31 50 0 8 -4 15 -10 15 -5 0 -10 -3 -10 -6z"/>
<path d="M1180 751 c0 -5 5 -13 10 -16 6 -3 10 -2 10 4 0 5 -4 13 -10 16 -5 3
-10 2 -10 -4z"/>
<path d="M1310 1530 c0 -11 5 -20 10 -20 6 0 10 9 10 20 0 11 -4 20 -10 20 -5
0 -10 -9 -10 -20z"/>
<path d="M1012 1554 c4 -21 22 -23 26 -1 2 10 -3 17 -13 17 -10 0 -15 -6 -13
-16z"/>
<path d="M1220 1550 c0 -7 24 -20 36 -20 13 0 1 19 -16 23 -11 3 -20 2 -20 -3z"/>
<path d="M530 702 c0 -12 19 -26 26 -19 2 2 -2 10 -11 17 -9 8 -15 8 -15 2z"/>
<path d="M1490 672 c0 -9 38 -52 46 -52 2 0 -5 14 -18 30 -23 31 -28 35 -28
22z"/>
<path d="M1460 642 c0 -5 7 -17 15 -28 15 -19 20 -8 9 20 -6 17 -24 22 -24 8z"/>
<path d="M157 1053 c-11 -10 -8 -59 4 -90 l11 -28 14 39 c19 52 20 53 49 26
47 -44 43 -68 -29 -178 -37 -55 -66 -110 -66 -122 0 -48 34 -133 75 -189 80
-109 204 -192 397 -265 171 -66 217 -89 318 -164 l93 -69 86 65 c103 77 156
104 321 167 149 56 147 55 231 111 131 87 213 194 239 308 l10 46 -67 103
c-38 59 -66 112 -65 125 2 24 40 82 54 82 5 0 16 -16 24 -36 18 -44 36 -34 38
21 2 53 -22 66 -71 40 -52 -28 -73 -70 -83 -167 -21 -217 -102 -300 -419 -424
-46 -18 -133 -63 -192 -99 l-109 -66 -57 37 c-112 72 -155 94 -246 130 -151
58 -236 104 -297 160 -71 67 -100 129 -111 243 -10 98 -36 159 -78 184 -30 17
-63 22 -74 10z m28 -32 c-3 -6 -11 -11 -17 -11 -6 0 -6 6 2 15 14 17 26 13 15
-4z m1691 -8 c-7 -7 -26 7 -26 19 0 6 6 6 15 -2 9 -7 13 -15 11 -17z m-34
-236 c38 -58 50 -118 28 -132 -5 -3 -10 -15 -10 -25 0 -53 -82 -149 -201 -236
-73 -54 -110 -71 -259 -125 -30 -11 -69 -26 -87 -34 -17 -8 -34 -15 -39 -15
-11 0 -99 -57 -182 -117 l-72 -53 -63 49 c-34 26 -76 56 -94 64 -17 9 -37 23
-45 30 -7 8 -90 43 -185 80 -141 54 -186 76 -259 129 -101 73 -172 157 -197
236 -23 68 -22 76 12 125 15 23 30 47 32 52 2 6 15 28 29 50 l25 40 6 -50 c11
-94 46 -164 118 -235 36 -36 91 -77 121 -92 86 -42 166 -78 174 -78 12 0 189
-88 231 -115 99 -62 97 -62 156 -24 78 49 109 67 159 90 25 11 63 29 85 39 22
10 75 32 118 48 126 49 231 133 278 224 27 52 48 139 42 174 l-5 29 23 -35
c13 -19 40 -61 61 -93z"/>
<path d="M285 584 c-29 -24 -29 -25 -5 -18 21 6 23 4 13 -7 -14 -17 3 -44 27
-44 8 0 14 -8 14 -17 -3 -28 12 -21 26 12 16 38 10 44 -24 29 -36 -17 -47 -2
-16 21 22 17 23 21 10 34 -14 14 -18 13 -45 -10z m35 -4 c0 -5 -4 -10 -10 -10
-5 0 -10 5 -10 10 0 6 5 10 10 10 6 0 10 -4 10 -10z m40 -54 c0 -11 -19 -15
-25 -6 -3 5 1 10 9 10 9 0 16 -2 16 -4z"/>
<path d="M1683 569 c-6 -6 -9 -18 -6 -25 3 -8 -1 -14 -10 -14 -9 0 -19 -4 -22
-10 -7 -12 23 -60 38 -60 7 0 7 4 -1 12 -18 18 -15 30 5 20 13 -8 21 -4 35 13
26 33 23 48 -7 43 -21 -5 -25 -2 -20 13 7 22 4 24 -12 8z m35 -49 c-13 -21
-29 -22 -35 -3 -4 10 11 17 40 22 4 0 2 -8 -5 -19z m-48 -10 c0 -5 -4 -10 -10
-10 -5 0 -10 5 -10 10 0 6 5 10 10 10 6 0 10 -4 10 -10z"/>
<path d="M370 491 c-12 -17 -17 -31 -12 -31 12 0 46 50 39 56 -3 3 -15 -9 -27
-25z"/>
<path d="M405 490 c-3 -6 -3 -20 1 -33 6 -19 5 -20 -10 -8 -9 8 -16 9 -16 3 0
-16 19 -25 36 -18 12 4 13 10 4 26 -11 21 -4 25 19 11 12 -8 12 -13 -3 -35 -9
-14 -12 -26 -7 -26 5 0 16 12 26 26 14 22 15 28 4 36 -37 24 -48 28 -54 18z"/>
<path d="M1600 490 c-12 -7 -11 -12 5 -32 11 -13 20 -24 21 -26 3 -7 34 11 34
20 0 6 -7 4 -16 -3 -15 -12 -16 -11 -10 9 6 18 4 21 -11 15 -16 -6 -16 -5 -4
10 15 18 5 22 -19 7z"/>
<path d="M1545 450 c-5 -8 8 -44 21 -59 2 -2 13 4 24 14 15 13 17 22 9 36 -10
20 -44 26 -54 9z m43 -23 c5 -24 -15 -21 -28 4 -10 18 -9 20 7 17 10 -2 19
-11 21 -21z"/>
<path d="M465 420 c-9 -16 -12 -30 -7 -30 5 0 14 10 20 23 11 22 11 22 11 -5
1 -15 6 -30 13 -34 8 -5 9 0 5 17 -4 13 -7 32 -7 42 0 27 -18 20 -35 -13z"/>
<path d="M516 424 c-4 -9 -4 -19 -1 -22 2 -3 7 3 11 12 4 9 4 19 1 22 -2 3 -7
-3 -11 -12z"/>
<path d="M1490 396 c0 -33 -23 -56 -35 -36 -4 6 -1 10 4 10 6 0 11 4 11 10 0
5 -7 7 -15 4 -8 -4 -15 -1 -15 4 0 6 7 13 15 15 11 3 10 4 -2 3 -13 -1 -17 -9
-15 -26 1 -14 6 -28 11 -33 10 -10 52 9 64 30 7 11 12 11 23 2 23 -19 16 6 -9
29 -31 30 -37 28 -37 -12z m30 4 c0 -5 -4 -10 -10 -10 -5 0 -10 5 -10 10 0 6
5 10 10 10 6 0 10 -4 10 -10z"/>
<path d="M540 405 c-16 -19 -3 -55 20 -55 18 0 34 23 23 34 -12 12 -22 6 -17
-9 4 -8 1 -15 -5 -15 -12 0 -15 32 -5 43 4 3 16 1 28 -5 19 -10 20 -10 7 5
-17 21 -35 22 -51 2z"/>
<path d="M1385 358 c11 -34 21 -41 42 -28 15 10 16 11 1 6 -13 -4 -20 2 -24
19 -3 14 -10 25 -16 25 -5 0 -6 -10 -3 -22z"/>
<path d="M650 349 c-12 -22 1 -49 25 -49 14 0 27 25 18 34 -12 12 -22 6 -17
-9 4 -8 1 -15 -5 -15 -6 0 -11 10 -11 21 0 17 5 20 25 17 28 -6 34 6 9 16 -25
10 -33 7 -44 -15z"/>
<path d="M1300 357 c0 -4 7 -21 15 -37 11 -22 20 -27 33 -22 16 6 16 7 0 10
-10 2 -18 7 -18 11 0 10 -29 48 -30 38z"/>
<path d="M721 313 c-11 -23 -10 -29 5 -40 10 -7 20 -10 23 -7 3 4 0 9 -6 11
-7 3 -13 9 -13 15 0 6 7 8 15 4 8 -3 15 -1 15 4 0 6 -4 10 -10 10 -5 0 -10 4
-10 10 0 5 7 6 17 3 11 -4 14 -3 9 5 -12 20 -32 13 -45 -15z"/>
<path d="M1251 313 c1 -10 5 -29 9 -43 6 -19 8 -20 9 -6 1 13 6 17 21 13 26
-7 25 5 -3 31 -28 27 -37 28 -36 5z m29 -13 c0 -5 -2 -10 -4 -10 -3 0 -8 5
-11 10 -3 6 -1 10 4 10 6 0 11 -4 11 -10z"/>
<path d="M775 291 c-19 -38 -19 -52 0 -27 15 19 15 19 15 -2 0 -28 15 -28 34
0 23 32 19 48 -3 19 l-19 -25 5 26 c7 38 -14 43 -32 9z"/>
<path d="M1214 277 c3 -30 15 -49 27 -42 5 4 2 19 -6 36 -19 35 -24 37 -21 6z"/>
<path d="M841 253 c-12 -26 -3 -43 24 -43 6 1 2 5 -8 11 -19 11 -14 30 6 25 7
-1 9 -1 5 1 -16 9 -7 22 10 17 14 -5 15 -4 2 5 -22 15 -25 14 -39 -16z"/>
<path d="M1170 275 c0 -13 24 -55 32 -55 5 0 4 9 -2 20 -8 14 -8 20 0 20 6 0
8 5 5 10 -6 10 -35 14 -35 5z"/>
<path d="M891 229 c-7 -16 -11 -33 -7 -36 3 -3 11 6 17 21 7 14 17 26 23 26 6
0 5 -5 -2 -12 -13 -13 -16 -47 -4 -49 4 -1 18 -3 31 -4 13 -1 27 -9 32 -16 6
-10 9 -5 9 16 0 50 -15 62 -35 31 -12 -18 -21 -24 -28 -17 -7 7 -6 15 3 26 10
12 10 18 0 30 -18 21 -23 19 -39 -16z m89 -39 c0 -5 -4 -10 -10 -10 -5 0 -10
5 -10 10 0 6 5 10 10 10 6 0 10 -4 10 -10z"/>
<path d="M1115 250 c-4 -6 -4 -22 -1 -36 7 -28 43 -33 53 -8 12 32 -35 71 -52
44z m39 -16 c7 -17 0 -34 -14 -34 -11 0 -21 30 -14 41 8 14 21 11 28 -7z"/>
<path d="M1074 208 c3 -13 6 -29 6 -35 0 -7 4 -13 8 -13 4 0 6 16 4 35 -2 19
-9 35 -14 35 -6 0 -8 -10 -4 -22z"/>
<path d="M1008 213 c6 -2 12 -18 12 -34 0 -16 5 -29 11 -29 7 0 10 12 7 30 -3
21 0 30 11 33 9 3 0 5 -19 5 -19 0 -29 -2 -22 -5z"/>
<path d="M1810 955 c-17 -31 -9 -39 27 -31 15 4 22 10 17 14 -6 4 -15 15 -20
25 -9 16 -11 16 -24 -8z"/>
<path d="M202 950 c-11 -17 -9 -20 13 -26 33 -8 40 -1 23 25 -16 26 -20 26
-36 1z"/>
<path d="M97 897 c-15 -34 -27 -72 -27 -84 0 -26 51 -66 58 -45 2 7 22 36 43
65 34 44 37 53 22 56 -23 4 -53 31 -53 47 0 34 -19 17 -43 -39z m73 -28 c0 -3
-9 -17 -21 -30 -11 -13 -25 -31 -30 -39 -8 -13 -10 -13 -19 0 -11 17 -5 44 16
77 12 20 17 21 34 11 11 -7 20 -16 20 -19z"/>
<path d="M1901 948 c-1 -22 -40 -58 -63 -58 -14 0 -8 -13 28 -65 39 -56 48
-64 65 -55 40 22 41 44 5 122 -19 40 -35 65 -35 56z m26 -93 c10 -28 10 -41 2
-51 -9 -11 -17 -6 -41 27 -28 39 -29 41 -11 55 25 19 34 13 50 -31z"/>
</g>
</svg>
